<svg
  xmlns="http://www.w3.org/2000/svg"
  fill="none"
  viewBox="0 0 650 900"
>

  <!-- Mug body -->
  <path
      fill="#53C68C"
      d="M41 430c0-35 104-60 234-60s234 25 234 60v420c0 35-104 60-234 60S41 885 41 850V430Z"
  ></path>

  <!-- Mug rim / coffee surface -->
  <path
      fill="#FF5D01"
      d="M275 470c-117 0-208-20-208-50s91-50 208-50 208 20 208 50-91 50-208 50Z"
  ></path>

  <!-- Mug handle -->
  <path
      fill="#53C68C"
      d="M509 500c40 0 80 20 80 80v140c0 60-40 80-80 80v-40c20 0 40-10 40-40V580c0-30-20-40-40-40v-40Z"
  ></path>

  <!-- Steam wisps -->
  <path
		fill="#B04304"
		d="M130 180c0-42 8-69 16-104s16-69 16-126c0 57 8 92 16 126s16 62 16 104-8 69-16 104-16 69-16 126c0-57-8-92-16-126s-16-62-16-104Zm117-69c0-42 8-69 16-104s16-69 16-126c0 57 8 92 16 126s16 62 16 104-8 69-16 104-16 69-16 126c0-57-8-92-16-126s-16-62-16-104Zm117 69c0-42 8-69 16-104s16-69 16-126c0 57 8 92 16 126s16 62 16 104-8 69-16 104-16 69-16 126c0-57-8-92-16-126s-16-62-16-104Z"
	></path>
</svg>

